<?xml version="1.0" standalone="no"?>
<!DOCTYPE svg PUBLIC "-//W3C//DTD SVG 20010904//EN"
 "http://www.w3.org/TR/2001/REC-SVG-20010904/DTD/svg10.dtd">
<svg version="1.0" xmlns="http://www.w3.org/2000/svg"
 width="177.000000pt" height="177.000000pt" viewBox="0 0 177.000000 177.000000"
 preserveAspectRatio="xMidYMid meet">
<metadata>
Created by potrace 1.11, written by Peter Selinger 2001-2013
</metadata>
<g transform="translate(0.000000,177.000000) scale(0.100000,-0.100000)"
fill="#000000" stroke="none">
<path d="M450 918 c0 -79 3 -153 6 -165 6 -23 8 -23 194 -23 l188 0 31 35 c30
35 31 39 31 131 0 96 0 96 -34 130 l-34 34 -191 0 -191 0 0 -142z"/>
<path d="M1105 1024 c-49 -7 -108 -16 -130 -19 l-40 -5 1 -107 0 -107 115 -18
c63 -9 131 -17 152 -18 42 0 47 2 161 69 l80 46 -99 3 c-89 2 -100 1 -121 -19
-22 -21 -24 -21 -49 -5 -17 11 -25 25 -25 46 0 50 51 79 80 45 9 -11 35 -15
109 -15 l96 0 -65 42 c-75 47 -139 78 -160 77 -8 -1 -55 -7 -105 -15z"/>
</g>
</svg>
